<svg width="512" height="512" viewBox="0 0 512 512" fill="none" xmlns="http://www.w3.org/2000/svg">
<g clip-path="url(#clip0_1835_3711)">
<path d="M193.802 118.982C195.217 118.951 196.061 119.289 196.744 120.549C198.722 123.977 200.092 127.779 201.967 131.257C205.934 138.614 209.751 146.03 213.461 153.504C215.503 157.618 219.058 162.098 221.466 166.251C227.865 161.819 232.985 157.967 238.825 152.785C241.982 149.985 253.582 137.075 257.173 138.115C260.271 140.994 260.647 171.31 262.816 177.12C263.859 180.614 266.329 183.423 268.052 186.665C272.128 194.332 277.19 201.247 282.688 207.945C284.033 209.583 286.355 211.719 287.417 213.327C290.873 218.564 294.497 223.631 298.651 228.353C301.553 231.214 305.409 233.629 308.183 236.573C316.433 245.33 324.813 253.561 333.881 261.465C337.262 264.413 347.095 270.633 348.806 273.966C348.126 275.975 344.628 279.356 343.154 281.208C336.486 289.564 329.911 298.022 323.282 306.408C318.421 312.553 319.029 310.333 312.478 310.324C304.817 310.393 296.846 310.763 289.224 310.017C281.831 309.295 276.61 307.097 269.096 308.384C266.545 308.823 258.316 306.059 254.619 306.94C251.994 307.566 244.517 305.599 242.452 307.569C242.024 311.257 240.884 313.521 239.564 316.965C235.702 327.045 232.602 337.382 228.851 347.504C227.099 352.232 225.788 356.717 223.185 361.084C221.19 358.771 218.715 354.485 217.018 351.817L208.489 338.67C191.379 311.75 170.503 284.081 139.009 273.578C128.811 269.839 117.536 267.691 107.795 263.026C104.827 261.604 114.586 245.49 115.716 242.767C116.828 240.09 120.376 236.638 121.875 233.98C125.283 227.938 129.492 222.419 133.113 216.533L158.643 174.971C162.342 168.955 165.996 162.541 169.814 156.64C172.675 152.218 177.122 147.631 179.94 142.968C182.554 138.641 185.225 134.268 187.72 129.871C189.728 126.332 191.125 122.048 193.802 118.982ZM234.775 234.927L235.142 235.089C238.12 236.424 240.997 238.259 243.899 239.474C247.77 241.094 252.643 242.072 256.695 243.287C258.042 243.691 261.363 244.754 262.551 244.677L262.966 244.412C265.535 239.698 267.373 236.118 269.301 231.068C264.142 229.483 258.981 227.869 253.822 226.286C249.681 225.014 245.149 222.525 240.692 221.885C238.304 225.922 236.919 230.946 234.775 234.927Z" fill="#FEFEFE"/>
<path d="M383.769 294.777C383.258 292.849 381.973 288.671 382.569 286.905C383.225 287.194 383.48 287.741 383.757 288.382C384.187 289.381 384.389 290.509 384.753 291.534C387.724 299.926 389.237 307.668 391.592 316.162C393.911 324.518 396.793 332.714 399.352 340.998C400.667 345.245 401.641 349.585 402.956 353.826C403.669 356.133 408.466 368.224 407.753 369.903C407.597 370.27 407.221 370.685 406.986 370.986C406.842 371.38 406.297 372.902 405.997 373.007C396.742 376.303 386.277 380.187 377.019 383.146C373.127 384.388 365.848 385.192 363.523 386.341C359.818 388.169 336.612 397.836 333.818 397.322C332.161 395.364 331.758 389.607 330.904 386.897C330.269 384.897 329.583 382.885 328.912 380.89L316.388 343.566C313.452 334.693 311.657 328.269 308.183 319.42C313.389 315.874 330.404 312.851 336.904 310.177C344.382 307.097 352.19 304.164 359.782 301.322C362.792 300.194 366.766 300.122 369.765 299.054C374.64 297.318 378.586 295.466 383.769 294.777Z" fill="#EFEF1A"/>
<path d="M383.769 294.777C383.257 292.849 381.973 288.671 382.569 286.905C383.224 287.194 383.48 287.741 383.757 288.382C384.187 289.381 384.388 290.509 384.752 291.534C387.724 299.926 389.237 307.668 391.592 316.162C393.911 324.518 396.793 332.714 399.352 340.998C400.667 345.245 401.641 349.585 402.956 353.826C403.668 356.133 408.466 368.224 407.753 369.903C407.597 370.27 407.221 370.685 406.986 370.986C398.447 346.746 390.903 319.489 383.769 294.777Z" fill="#FEFEFE"/>
<path d="M316.616 115.121C320.978 117.377 334.239 119.397 339.752 120.815C344.673 122.32 351.612 122.928 356.326 124.741C364.056 127.714 371.506 129.215 379.359 131.683C381.399 132.324 385.886 133.038 387.544 134.015C399.77 141.215 410.938 150.257 420.783 160.462C421.351 161.054 421.947 161.819 421.887 162.568C419.405 162.178 413.991 156.21 411.967 154.261C405.521 148.05 400.637 143.965 392.543 140.156C393.863 142.302 395.592 146.517 396.838 149.017C402.61 160.671 407.906 172.555 412.716 184.638C413.997 187.786 415.152 191.526 416.313 194.78C417.541 198.218 424.305 208.949 422.633 211.545C421.324 211.637 419.532 205.941 418.99 204.644C412.499 189.121 407.747 173.276 399.271 158.618C396.287 153.458 391.812 140.503 387.357 137.064C372.751 150.323 358.449 164.532 343.975 178.027L320.069 200.668C316.511 204.094 311.831 208.151 308.652 211.779C313.2 213.49 317.353 213.432 321.883 214.514C338.261 218.427 354.767 221.557 371.506 223.426C378.785 224.239 386.476 224.445 393.818 224.94C393.123 222.159 392.988 219.967 392.834 217.126C392.443 213.998 392.392 210.603 392.134 207.427L389.863 179.156C389.075 169.682 388.371 160.221 387.532 150.749C387.336 148.571 386.912 144.876 388.085 143.026L388.425 143.209C389.246 146.186 389.95 155.963 390.329 159.613C391.736 173.422 392.879 187.257 393.755 201.111C394.236 208.548 394.32 217.52 395.25 224.712C400.781 225.152 412.653 223.351 416.392 224.517L416.268 224.839C413.038 226.339 399.388 226.973 395.665 226.613C396.988 237.216 397.403 248.061 398.826 258.704C399.728 265.463 401.103 272.065 399.307 278.736C398.904 272.311 397.939 267.73 397.19 261.444C396.302 253.985 396.038 246.259 395.31 238.769C394.922 234.794 393.788 230.154 393.725 226.378C387.489 225.784 380.186 226.588 374.123 225.649C357.875 223.065 341.533 220.845 325.589 216.706C320.184 215.303 310.721 215.25 306.02 213.468L305.924 212.582C307.154 209.117 376.734 144.707 385.408 136.385L384.434 135.962C378.012 133.165 361.86 129.601 357.655 127.484C351.796 124.534 317.398 118.378 316.171 117.041C316.096 116.014 316.153 116.066 316.616 115.121Z" fill="#FEFEFE"/>
<path d="M78.7526 280.472C79.9293 280.829 81.6459 283.155 83.0312 284.123C89.4632 288.379 96.1498 292.867 102.625 297.005C108.306 300.639 120.527 311.109 126.945 312.099L161.058 290.791C162.028 290.178 162.224 290.112 163.17 290.331C163.503 291.3 163.208 292.385 162.306 292.981C150.948 300.495 138.609 307.043 127.212 314.321C130.958 316.857 135.361 318.743 138.036 320.638L159.88 336.321C164.307 339.563 168.465 342.947 173.14 345.846C174.442 346.905 183.725 353.164 183.987 353.883L183.615 354.22C181.086 353.835 179.96 352.421 177.927 351.032L166.434 343.067L133.025 320.042C130.567 318.373 128 317.254 125.446 315.642C117.545 319.973 109.854 324.608 102.076 329.141C101.511 329.472 100.928 329.58 100.274 329.496C101.225 327.102 120.453 316.12 123.7 314.222C119.025 311.169 114.641 307.834 110.079 304.612C102.695 299.397 94.4615 295.462 87.429 289.76C84.4034 287.305 81.4461 284.821 78.3893 282.4C78.2115 281.371 78.3126 281.609 78.7526 280.472Z" fill="#FEFEFE"/>
</g>
<defs>
<clipPath id="clip0_1835_3711">
<rect width="512" height="512" fill="white"/>
</clipPath>
</defs>
</svg>
