<svg width="512" height="512" viewBox="0 0 512 512" fill="none" xmlns="http://www.w3.org/2000/svg">
<g clip-path="url(#clip0_1836_3730)">
<rect width="512" height="512" rx="32" fill="#0C1D53"/>
<path d="M332.18 18C338.779 21.4189 358.846 24.4812 367.189 26.6304C374.635 28.9113 385.135 29.8336 392.266 32.5818C403.963 37.0876 415.237 39.3635 427.12 43.1038C430.206 44.0749 436.997 45.1576 439.504 46.638C458.006 57.5516 474.905 71.2576 489.801 86.7253C490.661 87.6225 491.562 88.7823 491.471 89.9175C487.717 89.3276 479.524 80.2814 476.461 77.3267C466.708 67.9126 459.316 61.72 447.069 55.9468C449.067 59.1997 451.684 65.5888 453.568 69.3779C462.302 87.043 470.317 105.056 477.594 123.371C479.533 128.142 481.281 133.811 483.038 138.743C484.895 143.955 495.131 160.221 492.6 164.156C490.62 164.294 487.908 155.661 487.089 153.695C477.267 130.165 470.076 106.149 457.25 83.9305C452.735 76.1099 445.963 56.4734 439.222 51.2605C417.121 71.3579 395.48 92.8946 373.579 113.349L337.405 147.668C332.021 152.861 324.939 159.01 320.128 164.509C327.01 167.103 333.295 167.015 340.149 168.655C364.931 174.586 389.909 179.33 415.237 182.164C426.251 183.396 437.889 183.708 448.999 184.459C447.947 180.243 447.742 176.921 447.51 172.614C446.919 167.873 446.841 162.727 446.45 157.912L443.014 115.062C441.821 100.701 440.756 86.3601 439.486 72.0035C439.19 68.7022 438.549 63.1009 440.324 60.2966L440.838 60.5738C442.081 65.0869 443.146 79.9062 443.719 85.4387C445.849 106.37 447.579 127.341 448.903 148.339C449.631 159.612 449.759 173.212 451.165 184.112C459.535 184.78 477.499 182.05 483.156 183.817L482.97 184.306C478.081 186.579 457.428 187.54 451.793 186.994C453.796 203.066 454.424 219.504 456.576 235.636C457.942 245.881 460.022 255.888 457.305 266C456.695 256.262 455.234 249.318 454.101 239.79C452.758 228.483 452.357 216.773 451.256 205.419C450.669 199.395 448.953 192.361 448.857 186.639C439.423 185.737 428.372 186.956 419.197 185.533C394.61 181.617 369.883 178.251 345.757 171.978C337.578 169.852 323.259 169.771 316.146 167.07L316 165.727C317.861 160.474 423.147 62.8451 436.273 50.2306L434.798 49.5896C425.081 45.3496 400.641 39.948 394.278 36.7397C385.412 32.2677 333.363 22.9366 331.506 20.911C331.393 19.3536 331.479 19.4329 332.18 18Z" fill="white"/>
<path d="M196.222 54.0033C198.694 53.9497 200.168 54.5393 201.362 56.7407C204.817 62.7311 207.211 69.3732 210.487 75.4503C217.416 88.3045 224.085 101.262 230.566 114.32C234.133 121.508 240.342 129.335 244.549 136.591C255.727 128.848 264.672 122.117 274.874 113.064C280.389 108.171 300.652 85.6159 306.926 87.4332C312.338 92.4629 312.995 145.43 316.783 155.58C318.606 161.687 322.92 166.593 325.931 172.259C333.051 185.654 341.894 197.735 351.499 209.438C353.847 212.301 357.904 216.032 359.758 218.842C365.796 227.992 372.127 236.845 379.384 245.094C384.454 250.093 391.19 254.313 396.035 259.456C410.447 274.756 425.086 289.137 440.928 302.948C446.834 308.098 464.01 318.966 467 324.788C465.813 328.299 459.702 334.206 457.127 337.443C445.478 352.042 433.992 366.819 422.411 381.471C413.92 392.207 414.982 388.329 403.538 388.313C390.155 388.434 376.231 389.08 362.916 387.777C350.001 386.516 340.88 382.674 327.754 384.924C323.299 385.691 308.923 380.861 302.465 382.401C297.878 383.494 284.817 380.057 281.21 383.499C280.462 389.942 278.47 393.9 276.165 399.917C269.417 417.527 264.003 435.589 257.45 453.273C254.389 461.534 252.099 469.369 247.551 477C244.068 472.959 239.743 465.47 236.779 460.809L221.879 437.838C191.991 390.804 155.521 342.462 100.504 324.11C82.6904 317.578 62.9929 313.826 45.9766 305.675C40.7927 303.19 57.8394 275.036 59.8145 270.279C61.7565 265.601 67.9541 259.571 70.5734 254.927C76.5271 244.37 83.8795 234.727 90.2047 224.443L134.803 151.826C141.264 141.315 147.649 130.109 154.318 119.799C159.316 112.072 167.085 104.058 172.007 95.9109C176.574 88.3518 181.24 80.7107 185.599 73.0282C189.106 66.8454 191.546 59.3599 196.222 54.0033ZM267.798 256.581L268.44 256.864C273.643 259.196 278.668 262.403 283.737 264.524C290.5 267.355 299.013 269.064 306.091 271.186C308.444 271.893 314.245 273.75 316.321 273.616L317.046 273.153C321.533 264.916 324.743 258.661 328.112 249.839C319.1 247.068 310.084 244.249 301.073 241.482C293.837 239.261 285.921 234.912 278.134 233.794C273.963 240.848 271.544 249.624 267.798 256.581Z" fill="#FEFEFE"/>
<path d="M28.7013 366C30.5496 366.558 33.2459 370.184 35.422 371.694C45.5251 378.331 56.0283 385.328 66.1993 391.782C75.1226 397.448 94.3195 413.775 104.401 415.318L157.984 382.092C159.507 381.135 159.815 381.032 161.301 381.375C161.824 382.885 161.362 384.578 159.945 385.507C142.103 397.223 122.722 407.434 104.819 418.784C110.704 422.738 117.62 425.679 121.822 428.633L156.134 453.088C163.087 458.144 169.619 463.421 176.961 467.942C179.008 469.593 193.588 479.354 194 480.475L193.416 481C189.443 480.4 187.674 478.195 184.482 476.028L166.428 463.609L113.951 427.705C110.09 425.102 106.058 423.357 102.046 420.843C89.6346 427.597 77.5544 434.825 65.3366 441.893C64.4489 442.409 63.5342 442.578 62.5061 442.446C64.0005 438.713 94.2033 421.589 99.3039 418.629C91.9605 413.869 85.0731 408.667 77.9073 403.644C66.3085 395.511 53.3764 389.376 42.3298 380.483C37.5774 376.656 32.9322 372.782 28.1306 369.006C27.8514 367.402 28.0101 367.773 28.7013 366Z" fill="white"/>
</g>
<defs>
<clipPath id="clip0_1836_3730">
<rect width="512" height="512" rx="32" fill="white"/>
</clipPath>
</defs>
</svg>
